<svg width="19" height="18" viewBox="0 0 19 18" fill="none" xmlns="http://www.w3.org/2000/svg">
<path d="M5.72155 0.666667C5.72155 0.489856 5.65132 0.320286 5.52629 0.195262C5.40127 0.0702379 5.2317 0 5.05489 0C4.87808 0 4.70851 0.0702379 4.58348 0.195262C4.45846 0.320286 4.38822 0.489856 4.38822 0.666667V2.07111C3.10822 2.17333 2.26911 2.424 1.65222 3.04178C1.03444 3.65867 0.783775 4.49867 0.680664 5.77778H18.318C18.2149 4.49778 17.9642 3.65867 17.3464 3.04178C16.7296 2.424 15.8896 2.17333 14.6104 2.07022V0.666667C14.6104 0.489856 14.5402 0.320286 14.4152 0.195262C14.2902 0.0702379 14.1206 0 13.9438 0C13.767 0 13.5974 0.0702379 13.4724 0.195262C13.3473 0.320286 13.2771 0.489856 13.2771 0.666667V2.01156C12.686 2 12.0229 2 11.2771 2H7.72155C6.97578 2 6.31266 2 5.72155 2.01156V0.666667Z" fill="white"/>
<path fill-rule="evenodd" clip-rule="evenodd" d="M18.3891 9.11111V10.8889C18.3891 14.2409 18.3891 15.9173 17.3473 16.9582C16.3064 18 14.63 18 11.278 18H7.72244C4.37044 18 2.69399 18 1.65311 16.9582C0.611328 15.9173 0.611328 14.2409 0.611328 10.8889V9.11111C0.611328 8.36534 0.611328 7.70223 0.622884 7.11111H18.3776C18.3891 7.70223 18.3891 8.36534 18.3891 9.11111ZM13.0558 10.2222C13.2326 10.2222 13.4022 10.2925 13.5272 10.4175C13.6522 10.5425 13.7224 10.7121 13.7224 10.8889V12H14.8336C15.0104 12 15.1799 12.0702 15.305 12.1953C15.43 12.3203 15.5002 12.4899 15.5002 12.6667C15.5002 12.8435 15.43 13.0131 15.305 13.1381C15.1799 13.2631 15.0104 13.3333 14.8336 13.3333H13.7224V14.4444C13.7224 14.6213 13.6522 14.7908 13.5272 14.9159C13.4022 15.0409 13.2326 15.1111 13.0558 15.1111C12.879 15.1111 12.7094 15.0409 12.5844 14.9159C12.4593 14.7908 12.3891 14.6213 12.3891 14.4444V13.3333H11.278C11.1012 13.3333 10.9316 13.2631 10.8066 13.1381C10.6816 13.0131 10.6113 12.8435 10.6113 12.6667C10.6113 12.4899 10.6816 12.3203 10.8066 12.1953C10.9316 12.0702 11.1012 12 11.278 12H12.3891V10.8889C12.3891 10.7121 12.4593 10.5425 12.5844 10.4175C12.7094 10.2925 12.879 10.2222 13.0558 10.2222Z" fill="white"/>
</svg>
