<svg width="65" height="65" viewBox="0 0 65 65" fill="none" xmlns="http://www.w3.org/2000/svg">
<circle cx="32.5" cy="32.5" r="32.5" fill="#1F1F1F"/>
<path fill-rule="evenodd" clip-rule="evenodd" d="M44.8054 31.9517L44.5304 34.8741C44.0768 39.6887 43.8507 42.0963 42.4309 43.5478C41.0125 45 38.885 45 34.6313 45H31.3676C27.1139 45 24.9871 45 23.568 43.5478C22.1489 42.0963 21.9221 39.6887 21.4692 34.8741L21.1942 31.951C20.9782 29.6564 20.8702 28.5094 21.2626 28.0343C21.3615 27.9107 21.4841 27.808 21.6232 27.7324C21.7623 27.6567 21.915 27.6095 22.0726 27.5936C22.6435 27.5432 23.3599 28.3597 24.7941 29.9912C25.5357 30.8357 25.9065 31.2584 26.3198 31.3232C26.5487 31.3592 26.7827 31.3224 26.9937 31.2152C27.3753 31.0236 27.6309 30.5024 28.1399 29.4584L30.824 23.9577C31.7859 21.9864 32.2676 21 32.9998 21C33.732 21 34.213 21.9864 35.1749 23.9577L37.8597 29.4584C38.3687 30.5024 38.6229 31.0236 39.0045 31.2152C39.2169 31.3224 39.4509 31.3592 39.6791 31.3232C40.0931 31.2584 40.4639 30.8357 41.2055 29.9912C42.6382 28.3597 43.3553 27.5432 43.927 27.5936C44.2352 27.621 44.5246 27.7779 44.7363 28.035C45.1294 28.5087 45.0214 29.6564 44.8054 31.9517ZM28.4999 40.1999C28.4999 39.7031 28.9031 39.2999 29.3999 39.2999H36.5997C36.8384 39.2999 37.0673 39.3947 37.2361 39.5635C37.4049 39.7323 37.4997 39.9612 37.4997 40.1999C37.4997 40.4385 37.4049 40.6675 37.2361 40.8362C37.0673 41.005 36.8384 41.0998 36.5997 41.0998H29.3999C28.9031 41.0998 28.4999 40.6966 28.4999 40.1999Z" fill="#F8F667"/>
</svg>
