<svg width="17" height="19" viewBox="0 0 17 19" fill="none" xmlns="http://www.w3.org/2000/svg">
    <path fill-rule="evenodd" clip-rule="evenodd" d="M6.73047 3.35517C6.85965 2.98924 7.09915 2.67238 7.41595 2.44826C7.73275 2.22414 8.11126 2.10378 8.49933 2.10378C8.88739 2.10378 9.26591 2.22414 9.58271 2.44826C9.89951 2.67238 10.139 2.98924 10.2682 3.35517C10.3263 3.50756 10.4418 3.63118 10.5898 3.69961C10.7379 3.76805 10.9068 3.7759 11.0606 3.72147C11.2144 3.66704 11.3408 3.55465 11.4128 3.4083C11.4848 3.26195 11.4968 3.09325 11.4461 2.93821C11.2305 2.32894 10.8314 1.80146 10.3037 1.42839C9.77599 1.05532 9.1456 0.854996 8.49933 0.854996C7.85305 0.854996 7.22267 1.05532 6.69495 1.42839C6.16722 1.80146 5.76812 2.32894 5.55256 2.93821C5.49727 3.09454 5.50634 3.26643 5.57779 3.41607C5.64924 3.56572 5.7772 3.68085 5.93353 3.73614C6.08987 3.79144 6.26176 3.78236 6.4114 3.71091C6.56104 3.63947 6.67618 3.5115 6.73147 3.35517H6.73047ZM0.789943 6.55492C0.746239 6.52687 0.699215 6.50436 0.649954 6.48792C0.773244 6.22855 0.939965 5.99217 1.14291 5.78898C2.12084 4.81306 3.69071 4.81306 6.83246 4.81306H10.1662C13.3089 4.81306 14.8798 4.81306 15.8557 5.78898C16.0597 5.99296 16.2217 6.22294 16.3487 6.48792C16.2998 6.50445 16.2531 6.52695 16.2097 6.55492C14.4599 7.69283 13.3599 8.40477 12.446 8.86073C12.4158 8.7088 12.3303 8.5735 12.206 8.48107C12.0817 8.38864 11.9275 8.34567 11.7733 8.36049C11.6191 8.37532 11.4759 8.44687 11.3715 8.56129C11.267 8.6757 11.2088 8.82482 11.2081 8.97972V9.36069C9.44193 9.89369 7.55773 9.89369 5.79154 9.36069V8.97972C5.79211 8.82393 5.73447 8.67354 5.62991 8.55804C5.52536 8.44254 5.38143 8.37025 5.22635 8.35536C5.07126 8.34046 4.91621 8.38403 4.79158 8.47752C4.66695 8.57101 4.58174 8.70768 4.55264 8.86073C3.64072 8.40477 2.5398 7.69283 0.789943 6.55492ZM0.166992 11.4795C0.166992 9.85365 0.166992 8.64975 0.301981 7.72982C2.19883 8.96273 3.41473 9.74966 4.54164 10.2336V10.6456C4.53979 10.8113 4.60385 10.971 4.71974 11.0895C4.83563 11.2081 4.99385 11.2757 5.15959 11.2775C5.32534 11.2794 5.48504 11.2153 5.60355 11.0994C5.72206 10.9836 5.78969 10.8253 5.79154 10.6596C7.5664 11.1276 9.43325 11.1276 11.2081 10.6596C11.21 10.8253 11.2776 10.9836 11.3961 11.0994C11.5146 11.2153 11.6743 11.2794 11.8401 11.2775C12.0058 11.2757 12.164 11.2081 12.2799 11.0895C12.3958 10.971 12.4599 10.8113 12.458 10.6456V10.2336C13.5839 9.74866 14.7998 8.96273 16.6977 7.72982C16.8327 8.64975 16.8327 9.85365 16.8327 11.4795C16.8327 14.6213 16.8327 16.1932 15.8557 17.1691C14.8798 18.145 13.3089 18.145 10.1662 18.145H6.83346C3.69071 18.145 2.11984 18.145 1.14391 17.1691C0.166992 16.1932 0.166992 14.6213 0.166992 11.4795Z" fill="#F86767"/>
</svg>
