<svg width="16" height="17" viewBox="0 0 16 17" fill="none" xmlns="http://www.w3.org/2000/svg">
<path fill-rule="evenodd" clip-rule="evenodd" d="M1.34993 8.48569C1.4037 8.5394 1.44635 8.60318 1.47546 8.67338C1.50456 8.74359 1.51954 8.81884 1.51954 8.89484C1.51954 8.97084 1.50456 9.04609 1.47546 9.1163C1.44635 9.1865 1.4037 9.25028 1.34993 9.30399L1.23107 9.42209C1.18268 9.47065 1.15551 9.5364 1.15551 9.60495C1.15551 9.6735 1.18268 9.73926 1.23107 9.78781C1.25515 9.81212 1.28381 9.83141 1.3154 9.84457C1.34698 9.85774 1.38086 9.86452 1.41507 9.86452C1.44929 9.86452 1.48317 9.85774 1.51475 9.84457C1.54633 9.83141 1.57499 9.81212 1.59908 9.78781L2.90425 8.48493C3.01454 8.38527 3.15893 8.33184 3.30752 8.33571C3.45612 8.33957 3.59753 8.40044 3.70249 8.50569C3.80745 8.61094 3.86792 8.75253 3.87137 8.90114C3.87482 9.04974 3.82099 9.19398 3.72103 9.30399L2.41662 10.6069C2.15089 10.8723 1.79066 11.0214 1.41507 11.0214C1.03948 11.0214 0.679254 10.8723 0.413527 10.6069C0.281823 10.4755 0.177332 10.3193 0.106038 10.1475C0.0347443 9.97562 -0.00195312 9.79139 -0.00195312 9.60533C-0.00195312 9.41927 0.0347443 9.23504 0.106038 9.06318C0.177332 8.89132 0.281823 8.73521 0.413527 8.60379L0.532387 8.48569C0.640926 8.37751 0.787917 8.31677 0.941157 8.31677C1.0944 8.31677 1.24139 8.37751 1.34993 8.48569ZM5.09324 9.25447C5.20142 9.36301 5.26216 9.51 5.26216 9.66324C5.26216 9.81648 5.20142 9.96347 5.09324 10.072L3.46045 11.7048C3.35025 11.8046 3.20591 11.8581 3.05732 11.8544C2.90872 11.8507 2.76725 11.7899 2.66219 11.6848C2.55713 11.5796 2.49653 11.4381 2.49295 11.2895C2.48936 11.1409 2.54305 10.9966 2.64291 10.8865L4.27494 9.25447C4.38351 9.14606 4.53067 9.08517 4.68409 9.08517C4.83752 9.08517 4.98467 9.14606 5.09324 9.25447ZM7.23348 11.3917C7.34189 11.5002 7.40278 11.6474 7.40278 11.8008C7.40278 11.9542 7.34189 12.1014 7.23348 12.21L5.61211 13.8313C5.50191 13.9311 5.35757 13.9846 5.20898 13.9809C5.06038 13.9772 4.91891 13.9165 4.81385 13.8113C4.7088 13.7061 4.6482 13.5646 4.64461 13.416C4.64102 13.2674 4.69471 13.1231 4.79457 13.013L6.41518 11.3917C6.52375 11.2832 6.6709 11.2224 6.82433 11.2224C6.97775 11.2224 7.12491 11.2832 7.23348 11.3917ZM4.79609 11.6972C5.01934 11.9258 5.01553 12.2915 4.78695 12.5147L3.46883 13.8039C3.35837 13.9067 3.21209 13.9623 3.0612 13.9588C2.91032 13.9553 2.7668 13.8929 2.66128 13.785C2.55576 13.6771 2.4966 13.5322 2.49644 13.3813C2.49629 13.2303 2.55514 13.0853 2.66043 12.9772L3.97855 11.688C4.0882 11.5809 4.23591 11.5217 4.38922 11.5234C4.54252 11.5251 4.68887 11.5876 4.79609 11.6972ZM7.98397 12.7806C8.09238 12.8892 8.15327 13.0364 8.15327 13.1898C8.15327 13.3432 8.09238 13.4904 7.98397 13.5989L6.6788 14.9018C6.63041 14.9504 6.60324 15.0161 6.60324 15.0847C6.60324 15.1532 6.63041 15.219 6.6788 15.2675C6.7809 15.3689 6.94547 15.3689 7.04757 15.2675L7.16643 15.1494C7.27626 15.0483 7.42094 14.9936 7.57021 14.9967C7.71948 14.9998 7.86177 15.0605 7.96729 15.1661C8.07281 15.2717 8.1334 15.4141 8.13637 15.5633C8.13933 15.7126 8.08445 15.8573 7.98321 15.967L7.86511 16.0851C7.59935 16.3508 7.23896 16.5 6.86319 16.5C6.48741 16.5 6.12702 16.3508 5.86126 16.0851C5.72956 15.9537 5.62506 15.7976 5.55377 15.6257C5.48248 15.4538 5.44578 15.2696 5.44578 15.0835C5.44578 14.8975 5.48248 14.7132 5.55377 14.5414C5.62506 14.3695 5.72956 14.2134 5.86126 14.082L7.16643 12.7791C7.27497 12.6709 7.42206 12.6101 7.57536 12.6103C7.72866 12.6104 7.87563 12.6722 7.98397 12.7806Z" fill="#67F88E"/>
<path d="M7.50364 3.09816L5.83808 4.75915C5.53179 5.06468 5.25064 5.34506 5.02816 5.59802C4.87811 5.76557 4.74251 5.94551 4.62282 6.13594L4.60682 6.11917L4.5451 6.05822C4.25516 5.77707 3.91436 5.55366 3.54089 5.39992L3.46013 5.36716L3.21174 5.26887C3.13448 5.23827 3.06603 5.18894 3.01257 5.12532C2.9591 5.0617 2.92228 4.98579 2.90543 4.90441C2.88858 4.82303 2.89223 4.73874 2.91604 4.65912C2.93985 4.5795 2.98307 4.50705 3.04183 4.44828C3.77556 3.71608 4.6571 2.83758 5.08302 2.66082C5.4526 2.50575 5.85734 2.45387 6.25409 2.51072C6.61219 2.56405 6.95125 2.74768 7.5044 3.0974L7.50364 3.09816ZM10.3502 11.8473C10.4843 11.9844 10.5734 12.0797 10.6542 12.1825C10.7608 12.3189 10.8561 12.4629 10.9384 12.6145C11.0321 12.7845 11.1045 12.9666 11.2492 13.33C11.3673 13.6256 11.7597 13.7041 11.9875 13.477L12.0424 13.4222C12.7761 12.6907 13.6577 11.8115 13.8352 11.3871C13.9914 11.0138 14.0432 10.6092 13.9853 10.2191C13.932 9.86249 13.7476 9.5242 13.3971 8.97257L11.7247 10.6404C11.4115 10.9528 11.1243 11.2393 10.8637 11.4633C10.7033 11.605 10.5315 11.7335 10.3502 11.8473Z" fill="#67F88E"/>
<path fill-rule="evenodd" clip-rule="evenodd" d="M11.0504 9.92267L14.8829 6.1024C15.4345 5.5523 15.7111 5.27724 15.8559 4.92676C16.0014 4.57704 16.0014 4.1877 16.0014 3.41054V3.0372C16.0014 1.84098 16.0014 1.24287 15.628 0.871055C15.2562 0.5 14.6566 0.5 13.4558 0.5H13.0832C12.303 0.5 11.9121 0.5 11.5617 0.644765C11.2112 0.78953 10.9346 1.06458 10.383 1.61545L6.55051 5.43572C5.90593 6.07878 5.50592 6.47727 5.35125 6.8628C5.30249 6.98471 5.27734 7.10433 5.27734 7.23081C5.27734 7.75653 5.70173 8.1794 6.55051 9.02589L6.6648 9.13942L8.00121 7.7832C8.09275 7.69035 8.21743 7.63766 8.34781 7.63673C8.4782 7.6358 8.60361 7.68671 8.69646 7.77825C8.78932 7.86979 8.842 7.99446 8.84293 8.12485C8.84386 8.25523 8.79295 8.38065 8.70141 8.4735L7.36044 9.83353L7.4511 9.92267C8.29988 10.7684 8.72351 11.192 9.25076 11.192C9.36733 11.192 9.47934 11.1715 9.59134 11.1303C9.98678 10.9848 10.3898 10.5817 11.0512 9.92267H11.0504ZM12.8508 5.43648C12.3541 5.93173 11.548 5.93173 11.0504 5.43648C10.9322 5.31882 10.8384 5.17895 10.7744 5.02493C10.7103 4.8709 10.6774 4.70574 10.6774 4.53894C10.6774 4.37214 10.7103 4.20698 10.7744 4.05295C10.8384 3.89893 10.9322 3.75906 11.0504 3.6414C11.548 3.14615 12.3533 3.14615 12.8508 3.6414C13.3484 4.13665 13.3484 4.94047 12.8508 5.43648Z" fill="#67F88E"/>
</svg>
