<svg width="10" height="14" viewBox="0 0 10 14" fill="none" xmlns="http://www.w3.org/2000/svg">
<path d="M0.68807 0C0.957646 0 1.17643 0.218787 1.17643 0.488363V1.69325L2.29693 1.469C3.3718 1.254 4.48601 1.35635 5.50372 1.76358L5.63655 1.81671C6.65286 2.22297 7.77126 2.29897 8.83318 2.03393C8.9484 2.00507 9.06868 2.00286 9.18488 2.02745C9.30107 2.05205 9.41014 2.10281 9.50377 2.17588C9.59741 2.24896 9.67316 2.34241 9.72526 2.44915C9.77736 2.55589 9.80444 2.6731 9.80444 2.79187V7.58877C9.80439 7.79273 9.73615 7.99081 9.61056 8.15151C9.48497 8.31221 9.30925 8.4263 9.11135 8.47564L8.97227 8.5108C7.81977 8.79881 6.60582 8.71624 5.50294 8.27482C4.48546 7.86775 3.37155 7.7654 2.29693 7.98024L1.17643 8.2045V13.5116C1.17643 13.6412 1.12498 13.7654 1.03339 13.857C0.941809 13.9485 0.817592 14 0.68807 14C0.558548 14 0.434331 13.9485 0.342745 13.857C0.251159 13.7654 0.199707 13.6412 0.199707 13.5116V0.488363C0.199707 0.218787 0.418494 0 0.68807 0Z" fill="white"/>
</svg>
