<svg width="15" height="14" viewBox="0 0 15 14" fill="none" xmlns="http://www.w3.org/2000/svg">
<path fill-rule="evenodd" clip-rule="evenodd" d="M0.804688 6.47498C0.937312 4.71432 1.73031 3.0688 3.02482 1.86807C4.31932 0.667347 6.01972 9.66221e-05 7.78537 0C7.20322 0 6.68492 0.25453 6.25987 0.644306C5.83565 1.0324 5.47779 1.57422 5.18798 2.21433C4.89649 2.85779 4.66968 3.6113 4.5168 4.42866C4.3921 5.10432 4.31769 5.78831 4.29419 6.47498H0.804688ZM0.804688 7.52502H4.29419C4.31939 8.22645 4.39415 8.91696 4.5168 9.57218C4.66968 10.3895 4.89649 11.1422 5.18798 11.7865C5.47779 12.4258 5.83565 12.9676 6.25987 13.3557C6.68576 13.7455 7.20322 14 7.78537 14C6.01972 13.9999 4.31932 13.3327 3.02482 12.1319C1.73031 10.9312 0.937312 9.28568 0.804688 7.52502Z" fill="white"/>
<path d="M7.78413 0.976959C7.59093 0.976959 7.34228 1.05844 7.0533 1.32305C6.76181 1.58934 6.47032 2.00768 6.21327 2.57722C5.95706 3.14257 5.74873 3.82467 5.60593 4.58826C5.49097 5.21127 5.4219 5.84186 5.39928 6.47498H10.169C10.1461 5.84184 10.0767 5.21124 9.9615 4.58826C9.81869 3.82467 9.61121 3.14257 9.355 2.57722C9.09711 2.00768 8.80561 1.58934 8.51496 1.32305C8.22515 1.05844 7.9765 0.976959 7.78413 0.976959ZM5.60593 9.41258C5.74873 10.1753 5.95706 10.8574 6.21243 11.4236C6.47032 11.9923 6.76181 12.4107 7.0533 12.6769C7.34228 12.9416 7.59093 13.0239 7.78413 13.0239C7.9765 13.0239 8.22515 12.9416 8.51496 12.6769C8.80561 12.4107 9.09711 11.9923 9.355 11.4236C9.61121 10.8574 9.81869 10.1753 9.9615 9.41258C10.0768 8.78932 10.1461 8.15844 10.169 7.52502H5.39844C5.4228 8.17437 5.49336 8.81111 5.60593 9.41258Z" fill="white"/>
<path d="M7.78418 0C8.36548 0 8.88378 0.25453 9.30968 0.644306C9.73306 1.0324 10.0909 1.57422 10.3816 2.21433C10.6722 2.85779 10.899 3.6113 11.0519 4.42866C11.1754 5.08388 11.2502 5.77439 11.2745 6.47498H14.7649C14.6322 4.71432 13.8392 3.0688 12.5447 1.86807C11.2502 0.667347 9.54982 9.66221e-05 7.78418 0ZM11.0519 9.57218C10.899 10.3895 10.6722 11.1422 10.3816 11.7865C10.0918 12.4258 9.73306 12.9676 9.30968 13.3557C8.88378 13.7455 8.36548 14 7.78418 14C9.54982 13.9999 11.2502 13.3327 12.5447 12.1319C13.8392 10.9312 14.6322 9.28568 14.7649 7.52502H11.2745C11.2513 8.21199 11.1769 8.89627 11.0519 9.57218Z" fill="white"/>
</svg>
