<svg width="12" height="12" viewBox="0 0 12 12" fill="none" xmlns="http://www.w3.org/2000/svg">
<path fill-rule="evenodd" clip-rule="evenodd" d="M10.2 11.4286C10.2 11.7442 9.93138 12 9.6 12H7.2H4.8H2.4C2.06863 12 1.8 11.7442 1.8 11.4286V10.1429C1.8 9.59057 1.3299 9.14286 0.75 9.14286C0.335784 9.14286 0 8.82309 0 8.42857V5.71429C0 2.55837 2.68629 0 6 0C9.31368 0 12 2.55837 12 5.71429V8.42857C12 8.82309 11.6642 9.14286 11.25 9.14286C10.6701 9.14286 10.2 9.59057 10.2 10.1429V11.4286ZM9 10.8571V10.1429C9 9.10617 9.77298 8.24143 10.8 8.04286V5.71429C10.8 3.18955 8.65098 1.14286 6 1.14286C3.34903 1.14286 1.2 3.18955 1.2 5.71429V8.04286C2.22701 8.24143 3 9.10617 3 10.1429V10.8571H4.2V9.71429C4.2 9.39869 4.46863 9.14286 4.8 9.14286C5.13138 9.14286 5.4 9.39869 5.4 9.71429V10.8571H6.6V9.71429C6.6 9.39869 6.86862 9.14286 7.2 9.14286C7.53138 9.14286 7.8 9.39869 7.8 9.71429V10.8571H9ZM5.4 6.57143C5.4 7.3604 3.97937 8 3.15149 8C2.39081 8 2.39524 7.46 2.40097 6.76034C2.40147 6.69857 2.40199 6.63549 2.40199 6.57143C2.40199 5.78246 3.07312 5.14286 3.901 5.14286C4.72887 5.14286 5.4 5.78246 5.4 6.57143ZM9.59904 6.76034C9.5985 6.69851 9.59802 6.63549 9.59802 6.57143C9.59802 5.78246 8.92686 5.14286 8.09898 5.14286C7.2711 5.14286 6.6 5.78246 6.6 6.57143C6.6 7.3604 8.02062 8 8.8485 8C9.60918 8 9.60474 7.46 9.59904 6.76034Z" fill="white"/>
</svg>
