<svg width="19" height="18" viewBox="0 0 19 18" fill="none" xmlns="http://www.w3.org/2000/svg">
<g clip-path="url(#clip0_2004_1839)">
<path fill-rule="evenodd" clip-rule="evenodd" d="M18.25 9C18.25 13.9706 14.2206 18 9.25 18C4.27944 18 0.25 13.9706 0.25 9C0.25 4.02944 4.27944 0 9.25 0C14.2206 0 18.25 4.02944 18.25 9ZM9.57252 6.6442C8.69714 7.0083 6.9476 7.7619 4.32392 8.90499C3.89787 9.07442 3.67469 9.24016 3.65438 9.40223C3.62004 9.67612 3.96303 9.78397 4.4301 9.93084C4.49364 9.95082 4.55947 9.97152 4.62695 9.99346C5.08648 10.1428 5.70462 10.3176 6.02597 10.3245C6.31746 10.3308 6.6428 10.2106 7.00198 9.964C9.45337 8.30925 10.7188 7.47286 10.7982 7.45483C10.8543 7.44211 10.9319 7.42611 10.9846 7.47288C11.0372 7.51966 11.032 7.60824 11.0265 7.632C10.9925 7.77685 9.64609 9.02857 8.94934 9.67633C8.73213 9.87827 8.57806 10.0215 8.54656 10.0542C8.476 10.1275 8.4041 10.1968 8.33499 10.2635C7.90808 10.675 7.58793 10.9836 8.35271 11.4876C8.72023 11.7298 9.01432 11.9301 9.30772 12.1299C9.62813 12.3481 9.94772 12.5657 10.3612 12.8367C10.4666 12.9058 10.5672 12.9775 10.6652 13.0474C11.0381 13.3132 11.3731 13.5521 11.7869 13.514C12.0274 13.4918 12.2758 13.2657 12.402 12.5913C12.7002 10.9974 13.2862 7.54384 13.4217 6.12073C13.4335 5.99605 13.4186 5.83648 13.4066 5.76643C13.3946 5.69638 13.3696 5.59658 13.2785 5.5227C13.1707 5.4352 13.0042 5.41675 12.9298 5.41806C12.5913 5.42403 12.0719 5.60461 9.57252 6.6442Z" fill="#67CCF8"/>
</g>
<defs>
<clipPath id="clip0_2004_1839">
<rect width="18" height="18" fill="white" transform="translate(0.25)"/>
</clipPath>
</defs>
</svg>
