<svg width="19" height="18" viewBox="0 0 19 18" fill="none" xmlns="http://www.w3.org/2000/svg">
<g clip-path="url(#clip0_2004_1842)">
<path fill-rule="evenodd" clip-rule="evenodd" d="M2.0153 1.2653C0.75 2.5306 0.75 4.56705 0.75 8.64V9.36C0.75 13.433 0.75 15.4694 2.0153 16.7347C3.2806 18 5.31705 18 9.39 18H10.11C14.183 18 16.2194 18 17.4847 16.7347C18.75 15.4694 18.75 13.433 18.75 9.36V8.64C18.75 4.56705 18.75 2.5306 17.4847 1.2653C16.2194 0 14.183 0 10.11 0H9.39C5.31705 0 3.2806 0 2.0153 1.2653ZM3.78754 5.47504C3.88504 10.155 6.22504 12.9675 10.3275 12.9675H10.5601V10.29C12.0676 10.44 13.2075 11.5425 13.665 12.9675H15.795C15.21 10.8375 13.6725 9.66004 12.7125 9.21004C13.6725 8.65504 15.0225 7.30504 15.345 5.47504H13.4099C12.9899 6.96004 11.7451 8.31004 10.5601 8.43754V5.47504H8.625V10.665C7.425 10.365 5.91004 8.91004 5.84254 5.47504H3.78754Z" fill="#67B0F8"/>
</g>
<defs>
<clipPath id="clip0_2004_1842">
<rect width="18" height="18" fill="white" transform="translate(0.75)"/>
</clipPath>
</defs>
</svg>
