<svg width="35" height="36" viewBox="0 0 35 36" fill="none" xmlns="http://www.w3.org/2000/svg">
<rect width="35" height="35" rx="6" fill="#282828"/>
    <g transform="translate(9, 9)">
        <path d="M15.2378 3.55903C14.0905 3.03262 12.8602 2.64478 11.5739 2.42265C11.5505 2.41837 11.5271 2.42908 11.515 2.45051C11.3568 2.73192 11.1815 3.09904 11.0588 3.3876C9.6753 3.18047 8.29889 3.18047 6.94374 3.3876C6.82099 3.09263 6.63936 2.73192 6.48043 2.45051C6.46836 2.4298 6.44496 2.41908 6.42154 2.42265C5.13593 2.64407 3.90567 3.03191 2.7577 3.55903C2.74776 3.56332 2.73924 3.57047 2.73359 3.57974C0.400044 7.06602 -0.239213 10.4666 0.0743851 13.825C0.075804 13.8414 0.0850274 13.8572 0.0977985 13.8672C1.63741 14.9978 3.12878 15.6842 4.59246 16.1392C4.61588 16.1463 4.6407 16.1378 4.65561 16.1185C5.00184 15.6457 5.31048 15.1471 5.57511 14.6228C5.59072 14.5921 5.57582 14.5557 5.5439 14.5435C5.05435 14.3578 4.5882 14.1314 4.1398 13.8743C4.10433 13.8536 4.10149 13.8029 4.13412 13.7786C4.22848 13.7079 4.32286 13.6343 4.41297 13.56C4.42927 13.5464 4.45198 13.5436 4.47115 13.5522C7.41696 14.8971 10.6062 14.8971 13.5172 13.5522C13.5364 13.5429 13.5591 13.5457 13.5761 13.5593C13.6662 13.6336 13.7606 13.7079 13.8557 13.7786C13.8883 13.8029 13.8862 13.8536 13.8507 13.8743C13.4023 14.1364 12.9361 14.3578 12.4459 14.5428C12.414 14.555 12.3998 14.5921 12.4154 14.6228C12.6857 15.1464 12.9943 15.6449 13.3342 16.1178C13.3484 16.1378 13.3739 16.1463 13.3973 16.1392C14.8681 15.6842 16.3595 14.9978 17.8991 13.8672C17.9126 13.8572 17.9211 13.8422 17.9225 13.8257C18.2978 9.94302 17.2939 6.57033 15.2612 3.58045C15.2562 3.57047 15.2477 3.56332 15.2378 3.55903ZM6.01502 11.7801C5.12812 11.7801 4.39735 10.9659 4.39735 9.96589C4.39735 8.96593 5.11395 8.15169 6.01502 8.15169C6.92315 8.15169 7.64686 8.97308 7.63266 9.96589C7.63266 10.9659 6.91606 11.7801 6.01502 11.7801ZM11.9961 11.7801C11.1092 11.7801 10.3784 10.9659 10.3784 9.96589C10.3784 8.96593 11.095 8.15169 11.9961 8.15169C12.9042 8.15169 13.6279 8.97308 13.6137 9.96589C13.6137 10.9659 12.9042 11.7801 11.9961 11.7801Z" fill="#999999"/>
    </g>
</svg>
