<svg width="19" height="18" viewBox="0 0 19 18" fill="none" xmlns="http://www.w3.org/2000/svg">
<path d="M5.98185 11.937L13.0181 6.50531M4.78438 8.93117C4.78438 8.93117 5.75959 8.73981 6.46321 8.19664C7.51865 7.38188 7.6791 6.13509 8.73454 5.32033C9.43817 4.77716 10.4134 4.5858 10.4134 4.5858M8.58658 13.8565C8.58658 13.8565 9.56179 13.6652 10.2654 13.122C11.3209 12.3073 11.4813 11.0605 12.5367 10.2457C13.2404 9.70253 14.2156 9.51117 14.2156 9.51117M15.8326 4.33263C18.5325 7.83006 17.886 12.8539 14.3885 15.5538C10.8911 18.2537 5.86724 17.6072 3.16735 14.1097C0.467486 10.6123 1.11402 5.58841 4.61143 2.88855C8.10887 0.188658 13.1327 0.835216 15.8326 4.33263Z" stroke="#67A1F8" stroke-width="1.5" stroke-linecap="round" stroke-linejoin="round"/>
</svg>
