<svg width="35" height="36" viewBox="0 0 35 36" fill="none" xmlns="http://www.w3.org/2000/svg">
<rect width="35" height="35" rx="6" fill="#282828"/>
    <g transform="translate(9, 9)">
        <path fill-rule="evenodd" clip-rule="evenodd" d="M18 9.44234C18 14.4129 13.9706 18.4423 9 18.4423C4.02944 18.4423 0 14.4129 0 9.44234C0 4.47177 4.02944 0.442337 9 0.442337C13.9706 0.442337 18 4.47177 18 9.44234ZM9.32252 7.08653C8.44714 7.45063 6.6976 8.20423 4.07392 9.34733C3.64787 9.51675 3.42469 9.6825 3.40438 9.84456C3.37004 10.1185 3.71303 10.2263 4.1801 10.3732C4.24364 10.3932 4.30947 10.4139 4.37695 10.4358C4.83648 10.5852 5.45462 10.7599 5.77597 10.7669C6.06746 10.7732 6.3928 10.653 6.75198 10.4063C9.20337 8.75159 10.4688 7.91519 10.5482 7.89716C10.6043 7.88444 10.6819 7.86845 10.7346 7.91522C10.7872 7.962 10.782 8.05058 10.7765 8.07434C10.7425 8.21919 9.39609 9.47091 8.69934 10.1187C8.48213 10.3206 8.32806 10.4639 8.29656 10.4966C8.226 10.5698 8.1541 10.6392 8.08499 10.7058C7.65808 11.1173 7.33793 11.426 8.10271 11.9299C8.47023 12.1721 8.76432 12.3724 9.05772 12.5722C9.37813 12.7904 9.69772 13.008 10.1112 13.2791C10.2166 13.3481 10.3172 13.4199 10.4152 13.4897C10.7881 13.7556 11.1231 13.9944 11.5369 13.9563C11.7774 13.9342 12.0258 13.708 12.152 13.0336C12.4502 11.4397 13.0362 7.98618 13.1717 6.56307C13.1835 6.43838 13.1686 6.27881 13.1566 6.20877C13.1446 6.13872 13.1196 6.03892 13.0285 5.96504C12.9207 5.87754 12.7542 5.85909 12.6798 5.8604C12.3413 5.86636 11.8219 6.04695 9.32252 7.08653Z" fill="#999999"/>
    </g>
</svg>
