<svg width="35" height="36" viewBox="0 0 35 36" fill="none" xmlns="http://www.w3.org/2000/svg">
<rect width="35" height="35" rx="6" fill="#282828"/>
    <g transform="translate(9, 9)">
        <path fill-rule="evenodd" clip-rule="evenodd" d="M1.2653 1.70764C0 2.97293 0 5.00939 0 9.08234V9.80234C0 13.8753 0 15.9117 1.2653 17.177C2.5306 18.4423 4.56705 18.4423 8.64 18.4423H9.36C13.433 18.4423 15.4694 18.4423 16.7347 17.177C18 15.9117 18 13.8753 18 9.80234V9.08234C18 5.00939 18 2.97293 16.7347 1.70764C15.4694 0.442337 13.433 0.442337 9.36 0.442337H8.64C4.56705 0.442337 2.5306 0.442337 1.2653 1.70764ZM3.03754 5.91737C3.13504 10.5974 5.47504 13.4099 9.57754 13.4099H9.81007V10.7324C11.3176 10.8824 12.4575 11.9849 12.915 13.4099H15.045C14.46 11.2799 12.9225 10.1024 11.9625 9.65237C12.9225 9.09737 14.2725 7.74737 14.595 5.91737H12.6599C12.2399 7.40237 10.9951 8.75237 9.81007 8.87987V5.91737H7.875V11.1074C6.675 10.8074 5.16004 9.35237 5.09254 5.91737H3.03754Z" fill="#999999"/>
    </g>
</svg>
