<svg width="36" height="35" viewBox="0 0 36 35" fill="none" xmlns="http://www.w3.org/2000/svg">
    <rect x="0.5" width="35" height="35" rx="6" fill="#282828"/>
    <path fill-rule="evenodd" clip-rule="evenodd" d="M13.3199 11.8199C12.5 12.6397 12.5 13.9603 12.5 16.5997V19.4003C12.5 22.0397 12.5 23.3603 13.3199 24.1801C14.1406 25 15.4603 25 18.0997 25C20.7399 25 22.0604 25 22.8803 24.1801C23.7002 23.3603 23.7002 22.0397 23.7002 19.4003V16.5997C23.7002 13.9603 23.7002 12.6397 22.8803 11.8199C22.0604 11 20.7399 11 18.1005 11C15.4603 11 14.1397 11 13.3199 11.8199ZM15.9996 12.5751C15.8603 12.5751 15.7268 12.6304 15.6283 12.7288C15.5299 12.8273 15.4746 12.9608 15.4746 13.1001C15.4746 13.2393 15.5299 13.3729 15.6283 13.4713C15.7268 13.5698 15.8603 13.6251 15.9996 13.6251H20.1997C20.339 13.6251 20.4725 13.5698 20.571 13.4713C20.6695 13.3729 20.7248 13.2393 20.7248 13.1001C20.7248 12.9608 20.6695 12.8273 20.571 12.7288C20.4725 12.6304 20.339 12.5751 20.1997 12.5751H15.9996ZM18.0997 22.8999C18.2864 22.9045 18.4721 22.8717 18.646 22.8034C18.8198 22.7351 18.9783 22.6327 19.1119 22.5022C19.2456 22.3718 19.3519 22.2159 19.4244 22.0438C19.4969 21.8717 19.5343 21.6868 19.5343 21.5C19.5343 21.3132 19.4969 21.1283 19.4244 20.9562C19.3519 20.7841 19.2456 20.6282 19.1119 20.4978C18.9783 20.3673 18.8198 20.2649 18.646 20.1966C18.4721 20.1283 18.2864 20.0955 18.0997 20.1001C17.7343 20.109 17.387 20.2605 17.1317 20.522C16.8765 20.7836 16.7336 21.1345 16.7336 21.5C16.7336 21.8655 16.8765 22.2164 17.1317 22.478C17.387 22.7395 17.7343 22.891 18.0997 22.8999Z" fill="#CCCCCC"/>
</svg>
