<svg width="36" height="35" viewBox="0 0 36 35" fill="none" xmlns="http://www.w3.org/2000/svg">
    <rect x="0.5" width="35" height="35" rx="6" fill="#282828"/>
    <path fill-rule="evenodd" clip-rule="evenodd" d="M25.1641 17.6665C25.1641 19.523 24.4266 21.3035 23.1138 22.6163C21.8011 23.929 20.0206 24.6665 18.1641 24.6665C16.3075 24.6665 14.5271 23.929 13.2143 22.6163C11.9016 21.3035 11.1641 19.523 11.1641 17.6665C11.1641 15.81 11.9016 14.0295 13.2143 12.7168C14.5271 11.404 16.3075 10.6665 18.1641 10.6665C20.0206 10.6665 21.8011 11.404 23.1138 12.7168C24.4266 14.0295 25.1641 15.81 25.1641 17.6665ZM19.2052 13.7791C19.2718 13.7968 19.3343 13.8275 19.389 13.8694C19.4438 13.9113 19.4897 13.9636 19.5242 14.0233C19.5587 14.083 19.581 14.1489 19.59 14.2173C19.599 14.2856 19.5944 14.3551 19.5765 14.4216L17.7655 21.1835C17.7294 21.3181 17.6413 21.4328 17.5207 21.5024C17.4 21.572 17.2566 21.5909 17.1221 21.5548C16.9875 21.5187 16.8728 21.4306 16.8032 21.31C16.7335 21.1893 16.7147 21.0459 16.7508 20.9114L18.5626 14.1495C18.5988 14.0152 18.6868 13.9008 18.8073 13.8314C18.9278 13.7619 19.0709 13.7431 19.2052 13.7791ZM20.2426 15.1953C20.2914 15.1465 20.3492 15.1078 20.4129 15.0814C20.4766 15.055 20.5449 15.0415 20.6139 15.0415C20.6828 15.0415 20.7511 15.055 20.8148 15.0814C20.8785 15.1078 20.9364 15.1465 20.9851 15.1953L21.1313 15.3414C21.5757 15.7866 21.9461 16.1562 22.2014 16.4905C22.4702 16.8433 22.6592 17.2154 22.6592 17.6665C22.6592 18.1176 22.4702 18.4897 22.2014 18.8425C21.9469 19.176 21.5757 19.5472 21.1313 19.9916L20.9851 20.1377C20.8867 20.2362 20.7531 20.2915 20.6139 20.2915C20.4746 20.2915 20.3411 20.2362 20.2426 20.1377C20.1441 20.0393 20.0888 19.9057 20.0888 19.7665C20.0888 19.6272 20.1441 19.4937 20.2426 19.3952L20.3627 19.2751C20.8398 18.798 21.1599 18.4771 21.3665 18.2058C21.5647 17.9462 21.6093 17.7959 21.6093 17.6665C21.6093 17.5371 21.5639 17.3868 21.3665 17.1272C21.1599 16.8568 20.8398 16.535 20.3627 16.0579L20.2426 15.9378C20.1938 15.8891 20.1552 15.8312 20.1288 15.7675C20.1024 15.7038 20.0888 15.6355 20.0888 15.5665C20.0888 15.4976 20.1024 15.4293 20.1288 15.3656C20.1552 15.3019 20.1938 15.244 20.2426 15.1953ZM15.343 15.1953C15.4414 15.0968 15.575 15.0415 15.7143 15.0415C15.8535 15.0415 15.9871 15.0968 16.0855 15.1953C16.184 15.2937 16.2393 15.4273 16.2393 15.5665C16.2393 15.7058 16.184 15.8394 16.0855 15.9378L15.9654 16.0579C15.4883 16.535 15.1683 16.8559 14.9616 17.1272C14.7634 17.3868 14.7189 17.5371 14.7189 17.6665C14.7189 17.7959 14.7634 17.9462 14.9616 18.2058C15.1683 18.4762 15.4883 18.798 15.9654 19.2751L16.0855 19.3952C16.184 19.4937 16.2393 19.6272 16.2393 19.7665C16.2393 19.9057 16.184 20.0393 16.0855 20.1377C15.9871 20.2362 15.8535 20.2915 15.7143 20.2915C15.575 20.2915 15.4414 20.2362 15.343 20.1377L15.1968 19.9916C14.7516 19.5464 14.382 19.1768 14.1267 18.8425C13.8579 18.4897 13.6689 18.1176 13.6689 17.6665C13.6689 17.2154 13.8579 16.8433 14.1267 16.4905C14.3812 16.1571 14.7525 15.7858 15.1968 15.3414L15.343 15.1953Z" fill="#CCCCCC"/>
</svg>
