<svg width="15" height="15" viewBox="0 0 15 15" fill="none" xmlns="http://www.w3.org/2000/svg">
    <path d="M0.5 3.65059C0.5 2.16559 0.5 1.42309 0.961963 0.961963C1.42225 0.5 2.16475 0.5 3.64975 0.5C5.13475 0.5 5.87725 0.5 6.33753 0.961963C6.7995 1.42309 6.7995 2.16559 6.7995 3.64975C6.7995 5.13475 6.7995 5.87725 6.33753 6.33837C5.87725 6.80034 5.13475 6.80034 3.64975 6.80034C2.16475 6.80034 1.42225 6.80034 0.961963 6.33837C0.5 5.87725 0.5 5.13475 0.5 3.65059ZM8.2005 11.3494C8.2005 9.86525 8.2005 9.12275 8.66247 8.66163C9.12275 8.19966 9.86525 8.19966 11.3503 8.19966C12.8353 8.19966 13.5778 8.19966 14.038 8.66163C14.5 9.12275 14.5 9.86525 14.5 11.3494C14.5 12.8344 14.5 13.5769 14.038 14.038C13.5778 14.5 12.8353 14.5 11.3503 14.5C9.86525 14.5 9.12275 14.5 8.66247 14.038C8.2005 13.5769 8.2005 12.8336 8.2005 11.3494ZM0.5 11.3494C0.5 9.86525 0.5 9.12275 0.961963 8.66163C1.42225 8.19966 2.16475 8.19966 3.64975 8.19966C5.13475 8.19966 5.87725 8.19966 6.33753 8.66163C6.7995 9.12275 6.7995 9.86525 6.7995 11.3494C6.7995 12.8344 6.7995 13.5769 6.33753 14.038C5.87725 14.5 5.13475 14.5 3.64975 14.5C2.16475 14.5 1.42225 14.5 0.961963 14.038C0.5 13.5769 0.5 12.8336 0.5 11.3494ZM8.2005 3.65059C8.2005 2.16559 8.2005 1.42309 8.66247 0.961963C9.12275 0.5 9.86525 0.5 11.3503 0.5C12.8353 0.5 13.5778 0.5 14.038 0.961963C14.5 1.42309 14.5 2.16559 14.5 3.64975C14.5 5.13475 14.5 5.87725 14.038 6.33837C13.5778 6.80034 12.8353 6.80034 11.3503 6.80034C9.86525 6.80034 9.12275 6.80034 8.66247 6.33837C8.2005 5.87725 8.2005 5.13475 8.2005 3.65059Z" fill="#6771F8"/>
</svg>
