<svg width="36" height="35" viewBox="0 0 36 35" fill="none" xmlns="http://www.w3.org/2000/svg">
    <rect x="0.5" width="35" height="35" rx="6" fill="#282828"/>
    <path d="M22.2936 24.6657C22.6612 24.6657 23.0253 24.5933 23.3649 24.4526C23.7046 24.3119 24.0132 24.1057 24.2732 23.8457C24.5332 23.5857 24.7394 23.2771 24.8801 22.9374C25.0208 22.5978 25.0932 22.2337 25.0932 21.8661C25.0932 21.4984 25.0208 21.1344 24.8801 20.7947C24.7394 20.4551 24.5332 20.1464 24.2732 19.8865C24.0132 19.6265 23.7046 19.4203 23.3649 19.2796C23.0253 19.1389 22.6612 19.0665 22.2936 19.0665H22.1399L18.0795 23.1243C17.996 23.2042 17.9295 23.3002 17.884 23.4064C17.8386 23.5126 17.8151 23.627 17.8149 23.7426C17.8149 24.2415 18.2181 24.6665 18.7179 24.6665H22.2944L22.2936 24.6657ZM19.064 12.7374L18.3248 13.4766C17.9988 13.8036 17.8155 14.2463 17.8149 14.708V20.4743C17.8149 21.2134 17.8149 21.5822 18.0342 21.6704C18.2534 21.7586 18.5087 21.4915 19.0203 20.9589L23.1067 16.6961C23.6316 16.1599 23.9221 15.4371 23.9141 14.6868C23.9062 13.9364 23.6005 13.22 23.0643 12.695C22.528 12.17 21.8053 11.8796 21.0549 11.8875C20.3045 11.8955 19.5889 12.2012 19.064 12.7374Z" fill="#CCCCCC"/>
    <path fill-rule="evenodd" clip-rule="evenodd" d="M16.7641 13.4665V21.8661C16.7641 22.2338 16.6916 22.5979 16.5509 22.9376C16.4102 23.2773 16.204 23.586 15.944 23.846C15.684 24.106 15.3753 24.3122 15.0356 24.4529C14.6959 24.5937 14.3318 24.6661 13.9641 24.6661C13.5964 24.6661 13.2323 24.5937 12.8925 24.4529C12.5528 24.3122 12.2442 24.106 11.9842 23.846C11.7242 23.586 11.5179 23.2773 11.3772 22.9376C11.2365 22.5979 11.1641 22.2338 11.1641 21.8661V13.4665C11.1641 13.0988 11.2365 12.7347 11.3772 12.395C11.5179 12.0553 11.7242 11.7466 11.9842 11.4866C12.2442 11.2266 12.5528 11.0204 12.8925 10.8796C13.2323 10.7389 13.5964 10.6665 13.9641 10.6665C14.3318 10.6665 14.6959 10.7389 15.0356 10.8796C15.3753 11.0204 15.684 11.2266 15.944 11.4866C16.204 11.7466 16.4102 12.0553 16.5509 12.395C16.6916 12.7347 16.7641 13.0988 16.7641 13.4665ZM13.9636 22.5658C14.1492 22.5658 14.3272 22.4921 14.4584 22.3608C14.5896 22.2296 14.6633 22.0517 14.6633 21.8661C14.6633 21.6805 14.5896 21.5025 14.4584 21.3713C14.3272 21.2401 14.1492 21.1664 13.9636 21.1664C13.7781 21.1664 13.6001 21.2401 13.4689 21.3713C13.3377 21.5025 13.264 21.6805 13.264 21.8661C13.264 22.0517 13.3377 22.2296 13.4689 22.3608C13.6001 22.4921 13.7781 22.5658 13.9636 22.5658Z" fill="#CCCCCC"/>
</svg>
