<svg width="35" height="35" viewBox="0 0 35 35" fill="none" xmlns="http://www.w3.org/2000/svg">
    <rect width="35" height="35" rx="6" fill="#282828"/>
    <path d="M23.5058 15.011H22.5238L21.9862 17.9473H22.8589C22.9056 17.9508 22.9606 17.9535 23.0156 17.9535C23.4382 17.9535 23.8309 17.8213 24.1609 17.5941L24.1526 17.5994C24.4619 17.3066 24.6719 16.9019 24.7261 16.445L24.7269 16.4361C24.7669 16.3136 24.7903 16.1734 24.7903 16.027C24.7903 15.7688 24.7178 15.5283 24.5936 15.3278L24.5961 15.3322C24.3485 15.1245 24.0326 14.9985 23.6883 14.9985C23.6241 14.9985 23.5599 15.003 23.4974 15.0119L23.5058 15.011ZM26.209 16.5434C26.1465 16.8966 26.0356 17.2116 25.8839 17.4983L25.8914 17.4832C25.7297 17.7831 25.5355 18.0404 25.3096 18.2605L25.3071 18.2623C25.0437 18.5303 24.7244 18.7397 24.3693 18.8675L24.3518 18.8728C23.9842 18.989 23.5624 19.0565 23.1248 19.0565C23.0848 19.0565 23.0456 19.0556 23.0065 19.0547H23.0123H21.7828L21.4419 20.9199H20.0065L21.2877 13.9053H24.0467C24.1076 13.8991 24.1793 13.8955 24.251 13.8955C24.8795 13.8955 25.4496 14.1653 25.8631 14.6019C26.129 14.9657 26.2898 15.4298 26.2898 15.9329C26.2898 16.1503 26.2598 16.3607 26.204 16.5585L26.2073 16.5434H26.209ZM18.296 19.0556L18.862 15.9516C18.8912 15.8673 18.9079 15.7706 18.9079 15.6694C18.9079 15.507 18.8645 15.3553 18.7895 15.2266L18.7912 15.2301C18.6286 15.1041 18.4252 15.0278 18.2052 15.0278C18.1593 15.0278 18.1143 15.0314 18.0702 15.0376L18.0752 15.0367H16.9373L16.2038 19.0565H14.7793L16.0604 12.0409H17.4842L17.1432 13.9062H18.4119C18.4894 13.8973 18.5786 13.892 18.6695 13.892C19.1905 13.892 19.6739 14.0633 20.0724 14.357L20.064 14.3517C20.2782 14.6099 20.4091 14.9515 20.4091 15.3251C20.4091 15.4919 20.3833 15.6525 20.3349 15.8025L20.3374 15.7918L19.7414 19.0565L18.296 19.0556ZM14.1041 18.2623C13.8407 18.5312 13.5214 18.7397 13.1663 18.8675L13.1488 18.8728C12.7812 18.989 12.3595 19.0565 11.9227 19.0565C11.8835 19.0565 11.8435 19.0556 11.8043 19.0547H11.8101H10.5798L10.2389 20.9191H8.80351L10.0847 13.9044H12.8454C12.9063 13.8982 12.978 13.8947 13.0496 13.8947C13.6781 13.8947 14.2483 14.1644 14.6617 14.601C14.9276 14.9648 15.0877 15.4289 15.0877 15.9321C15.0877 16.1503 15.0577 16.3607 15.0018 16.5594L15.0052 16.5443C14.8835 17.2312 14.5609 17.823 14.1058 18.2605L14.1033 18.2632L14.1041 18.2623ZM17.5 10C10.5973 10 5 13.1333 5 16.9996C5 20.8658 10.5965 24 17.5 24C24.4035 24 30 20.8649 30 16.9996C30 13.1342 24.4035 10 17.5 10ZM12.3019 15.011H11.3184L10.7815 17.9473H11.6543C11.701 17.9508 11.7551 17.9535 11.8101 17.9535C12.2328 17.9535 12.6262 17.8213 12.9563 17.5941L12.948 17.5994C13.2572 17.3075 13.4664 16.9019 13.5198 16.445L13.5206 16.4361C13.5614 16.3136 13.5848 16.1725 13.5848 16.0261C13.5848 15.7688 13.5131 15.5283 13.3889 15.3286L13.3914 15.3331C13.1438 15.1254 12.8279 14.9994 12.4837 14.9994C12.4195 14.9994 12.3553 15.0039 12.2928 15.0127L12.3003 15.0119L12.3019 15.011Z" fill="#CCCCCC"/>
</svg>
