<svg width="35" height="35" viewBox="0 0 35 35" fill="none" xmlns="http://www.w3.org/2000/svg">
    <rect width="35" height="35" rx="6" fill="#282828"/>
    <g transform="translate(9, 9)">
        <path d="M6.06051 7.71444H9.91531C10.9885 7.71444 11.845 6.8406 11.845 5.7747V2.14001C11.845 1.10564 10.9627 0.328495 9.91531 0.155782C9.25232 0.0466936 8.56442 -0.00293466 7.90478 0.000133841C7.24489 0.00317103 6.61508 0.0588111 6.06051 0.155782C4.42745 0.441246 4.13096 1.03848 4.13096 2.14001V3.59482H7.99019V4.0797H4.13096H2.68265C1.56092 4.0797 0.578761 4.74648 0.27172 6.01499C-0.0825841 7.46892 -0.0984758 8.37614 0.27172 9.89439C0.54606 11.0243 1.20114 11.8296 2.32277 11.8296H3.64974V10.0856C3.64974 8.8257 4.75168 7.71444 6.06051 7.71444ZM5.81767 2.62492C5.41765 2.62492 5.09345 2.30069 5.09345 1.89972C5.09345 1.49741 5.41765 1.17017 5.81767 1.17017C6.21636 1.17017 6.54176 1.49741 6.54176 1.89972C6.54176 2.30073 6.21639 2.62492 5.81767 2.62492ZM15.7044 6.01499C15.427 4.91064 14.8976 4.0797 13.7745 4.0797H12.3262V5.7747C12.3262 7.0889 11.1998 8.19481 9.91531 8.19481H6.06051C5.00478 8.19481 4.13096 9.08865 4.13096 10.1347V13.7692C4.13096 14.8037 5.04033 15.4123 6.06051 15.7088C7.28212 16.0642 8.45346 16.1286 9.91531 15.7088C10.8868 15.4308 11.845 14.8707 11.845 13.7692V12.3145H7.99019V11.8296H11.845H13.7745C14.8962 11.8296 15.3143 11.0557 15.7044 9.89435C16.1071 8.6987 16.0899 7.5488 15.7044 6.01499ZM10.1583 13.2843C10.5585 13.2843 10.8824 13.6086 10.8824 14.0093C10.8824 14.4117 10.5585 14.739 10.1583 14.739C9.75959 14.739 9.4341 14.4117 9.4341 14.0093C9.4341 13.6086 9.75959 13.2843 10.1583 13.2843Z" fill="#CCCCCC" fill-opacity="0.8"/>
    </g>
</svg>
