<svg width="19" height="15" viewBox="0 0 19 15" fill="none" xmlns="http://www.w3.org/2000/svg">
    <path d="M5.8535 1.20701C7.4175 0.582008 8.3505 0.208008 9.4995 0.208008C10.6495 0.208008 11.5825 0.582008 13.1465 1.20801L15.6205 2.19801C16.4165 2.51501 17.0605 2.77301 17.5025 3.00501C17.7265 3.12201 17.9435 3.25501 18.1105 3.41501C18.2825 3.58101 18.4585 3.83001 18.4585 4.16701C18.4585 4.50301 18.2825 4.75301 18.1105 4.91701C17.928 5.08168 17.7233 5.22002 17.5025 5.32801C17.0605 5.56001 16.4165 5.81801 15.6205 6.13601L13.1465 7.12601C11.5825 7.75201 10.6495 8.12501 9.4995 8.12501C8.3505 8.12501 7.4175 7.75201 5.8535 7.12501L3.3785 6.13601C2.5835 5.81801 1.9385 5.56001 1.4965 5.32801C1.27632 5.21983 1.07207 5.08187 0.889504 4.91801C0.717504 4.75301 0.541504 4.50301 0.541504 4.16701C0.541504 3.83001 0.717504 3.58101 0.889504 3.41601C1.0565 3.25601 1.2735 3.12201 1.4965 3.00501C1.9395 2.77301 2.5835 2.51501 3.3785 2.19701L5.8535 1.20701Z" fill="#F8B267"/>
    <path fill-rule="evenodd" clip-rule="evenodd" d="M1.58352 7.03499L1.58252 7.03399L1.58552 7.03599C1.58952 7.03899 1.59552 7.04599 1.60552 7.05299L1.70352 7.13199C1.79452 7.20199 1.93552 7.30499 2.12752 7.42999C2.51052 7.67799 3.09552 8.00999 3.88052 8.32399L6.22052 9.25999C7.90852 9.93499 8.61652 10.208 9.50052 10.208C10.3835 10.208 11.0905 9.93499 12.7785 9.25999L15.1185 8.32399C15.9045 8.00999 16.4885 7.67799 16.8725 7.42999C17.06 7.30829 17.2409 7.17677 17.4145 7.03599L17.4165 7.03499V7.03299C17.5401 6.9224 17.7026 6.86543 17.8682 6.87462C18.0338 6.88381 18.1889 6.9584 18.2995 7.08199C18.4101 7.20558 18.4671 7.36805 18.4579 7.53364C18.4487 7.69924 18.3741 7.8544 18.2505 7.96499L18.2495 7.96599L18.2475 7.96799L18.2445 7.97099L18.2325 7.98099C18.1768 8.02957 18.1194 8.07626 18.0605 8.12099C17.9445 8.21099 17.7745 8.33399 17.5525 8.47799C17.1085 8.76599 16.4525 9.13699 15.5825 9.48499L13.2425 10.421L13.1465 10.459C11.5825 11.085 10.6495 11.459 9.49952 11.459C8.35052 11.459 7.41752 11.085 5.85352 10.459L5.75752 10.421L3.41752 9.48499C2.72984 9.21381 2.07008 8.87656 1.44752 8.47799C1.22523 8.3343 1.0106 8.17909 0.804519 8.01299C0.79211 8.00241 0.779777 7.99175 0.767519 7.98099L0.755519 7.97099L0.751519 7.96799L0.750519 7.96599H0.749519C0.625928 7.85553 0.55128 7.7005 0.541997 7.535C0.532714 7.36949 0.589556 7.20708 0.700019 7.08349C0.810482 6.9599 0.965516 6.88526 1.13102 6.87597C1.29652 6.86669 1.45893 6.92353 1.58252 7.03399M1.58252 10.367C1.45907 10.2569 1.29703 10.2003 1.1319 10.2095C0.966763 10.2187 0.812003 10.2929 0.701519 10.416L1.58152 10.366L1.58252 10.367ZM1.58252 10.367L1.58552 10.369C1.62345 10.4027 1.66282 10.4347 1.70352 10.465C1.79452 10.535 1.93552 10.639 2.12752 10.763C2.51052 11.011 3.09552 11.343 3.88052 11.657L6.22052 12.593C7.90852 13.268 8.61652 13.542 9.50052 13.542C10.3835 13.542 11.0905 13.268 12.7785 12.593L15.1185 11.657C15.9045 11.343 16.4885 11.011 16.8725 10.763C17.06 10.6414 17.241 10.5098 17.4145 10.369L17.4165 10.368V10.367C17.4777 10.3122 17.5491 10.2701 17.6266 10.2429C17.7041 10.2157 17.7862 10.2041 17.8682 10.2086C17.9502 10.2132 18.0305 10.2338 18.1045 10.2694C18.1785 10.305 18.2448 10.3548 18.2995 10.416C18.3543 10.4772 18.3965 10.5486 18.4236 10.6261C18.4508 10.7036 18.4624 10.7856 18.4579 10.8676C18.4533 10.9496 18.4327 11.0299 18.3971 11.1039C18.3615 11.178 18.3117 11.2442 18.2505 11.299L18.2475 11.301L18.2445 11.304L18.2325 11.314C18.1773 11.3632 18.1199 11.4099 18.0605 11.454C17.9445 11.544 17.7745 11.667 17.5525 11.812C17.1085 12.1 16.4525 12.47 15.5825 12.818L13.2425 13.754L13.1465 13.793C11.5825 14.418 10.6495 14.792 9.49952 14.792C8.35052 14.792 7.41752 14.418 5.85352 13.792L5.75752 13.754L3.41752 12.818C2.72989 12.5471 2.07014 12.2102 1.44752 11.812C1.22521 11.668 1.01058 11.5124 0.804519 11.346C0.792086 11.3354 0.779752 11.3248 0.767519 11.314L0.755519 11.304L0.751519 11.301L0.750519 11.3L0.749519 11.299C0.688354 11.2442 0.638591 11.1779 0.603073 11.1038C0.567555 11.0298 0.546979 10.9494 0.542521 10.8674C0.538063 10.7854 0.549811 10.7034 0.577093 10.6259C0.604375 10.5484 0.646656 10.4771 0.701519 10.416" fill="#F8B267"/>
</svg>
