<svg width="15" height="14" viewBox="0 0 15 14" fill="none" xmlns="http://www.w3.org/2000/svg">
    <path fill-rule="evenodd" clip-rule="evenodd" d="M7.5 14C9.35651 14 11.137 13.2625 12.4497 11.9497C13.7625 10.637 14.5 8.85651 14.5 7C14.5 5.14348 13.7625 3.36301 12.4497 2.05025C11.137 0.737498 9.35651 0 7.5 0C5.64348 0 3.86301 0.737498 2.55025 2.05025C1.2375 3.36301 0.5 5.14348 0.5 7C0.5 8.85651 1.2375 10.637 2.55025 11.9497C3.86301 13.2625 5.64348 14 7.5 14ZM4.97738 9.48734C5.01844 9.43186 5.07003 9.38502 5.1292 9.3495C5.18838 9.31398 5.25398 9.29047 5.32225 9.28033C5.39052 9.27019 5.46012 9.27361 5.52707 9.29039C5.59401 9.30717 5.657 9.33699 5.71241 9.37814C6.22147 9.75615 6.83805 9.97456 7.49916 9.97456C8.16195 9.97456 8.77685 9.75615 9.28675 9.37814C9.3987 9.29526 9.53899 9.26025 9.67676 9.28081C9.81453 9.30136 9.93848 9.37581 10.0214 9.48776C10.1042 9.59971 10.1392 9.74 10.1187 9.87777C10.0981 10.0155 10.0237 10.1395 9.91174 10.2224C9.23131 10.7264 8.39968 11.0254 7.49916 11.0254C6.62936 11.0244 5.78315 10.7424 5.08658 10.2215C4.97478 10.1386 4.90047 10.0147 4.87999 9.87704C4.85951 9.73937 4.89454 9.5992 4.97738 9.48734ZM10.2998 5.94996C10.2998 6.52958 9.9865 7 9.59924 7C9.21283 7 8.8995 6.52958 8.8995 5.94996C8.8995 5.37034 9.21283 4.89992 9.59924 4.89992C9.98566 4.89992 10.2998 5.37034 10.2998 5.94996ZM5.39908 7C5.78549 7 6.09966 6.52958 6.09966 5.94996C6.09966 5.37034 5.78633 4.89992 5.39908 4.89992C5.01266 4.89992 4.69933 5.37034 4.69933 5.94996C4.69933 6.52958 5.01266 7 5.39908 7Z" fill="#67F87D"/>
</svg>
