<svg width="11" height="14" viewBox="0 0 11 14" fill="none" xmlns="http://www.w3.org/2000/svg">
    <path d="M1.35262 0C1.6222 0 1.84098 0.218787 1.84098 0.488363V1.69325L2.96148 1.469C4.03635 1.254 5.15056 1.35635 6.16827 1.76358L6.30111 1.81671C7.31741 2.22297 8.43581 2.29897 9.49773 2.03393C9.61295 2.00507 9.73323 2.00286 9.84943 2.02745C9.96563 2.05205 10.0747 2.10281 10.1683 2.17588C10.262 2.24896 10.3377 2.34241 10.3898 2.44915C10.4419 2.55589 10.469 2.6731 10.469 2.79187V7.58877C10.4689 7.79273 10.4007 7.99081 10.2751 8.15151C10.1495 8.31221 9.9738 8.4263 9.77591 8.47564L9.63682 8.5108C8.48432 8.79881 7.27037 8.71624 6.16749 8.27482C5.15001 7.86775 4.0361 7.7654 2.96148 7.98024L1.84098 8.2045V13.5116C1.84098 13.6412 1.78953 13.7654 1.69795 13.857C1.60636 13.9485 1.48214 14 1.35262 14C1.2231 14 1.09888 13.9485 1.0073 13.857C0.91571 13.7654 0.864258 13.6412 0.864258 13.5116V0.488363C0.864258 0.218787 1.08304 0 1.35262 0Z" fill="#F6F867"/>
</svg>
