<svg width="15" height="14" viewBox="0 0 15 14" fill="none" xmlns="http://www.w3.org/2000/svg">
    <path d="M8.05753 1.15621L7.65686 1.39392C7.21588 1.65432 6.9958 1.78535 6.75305 1.81559C6.51029 1.84583 6.27258 1.77359 5.79799 1.6266L5.36541 1.49388C3.69301 0.978976 2.85639 0.721103 2.35409 1.18141C1.85178 1.64172 2.01558 2.51445 2.34317 4.25993L2.42716 4.711C2.5204 5.20658 2.56744 5.45522 2.512 5.69713C2.45656 5.93988 2.30621 6.14904 2.00466 6.56651L1.72998 6.94786C0.669932 8.4195 0.139066 9.15532 0.397779 9.76514C0.656492 10.375 1.53343 10.4556 3.28646 10.616L3.74005 10.658C4.23732 10.7034 4.48679 10.7252 4.6951 10.8454C4.90426 10.9646 5.04789 11.1671 5.33685 11.5719L5.6006 11.9398C6.61697 13.3644 7.12516 14.0759 7.7879 13.9936C8.45064 13.9096 8.82863 13.0864 9.58377 11.4409L9.77949 11.015C9.88868 10.7765 9.971 10.5984 10.0491 10.459L13.2612 13.671C13.3597 13.7695 13.4932 13.8248 13.6325 13.8248C13.7717 13.8248 13.9053 13.7695 14.0037 13.671C14.1022 13.5726 14.1575 13.439 14.1575 13.2998C14.1575 13.1605 14.1022 13.027 14.0037 12.9285L10.9017 9.82646L11.1898 9.72398L11.6266 9.57111C13.3158 8.97976 14.1608 8.68409 14.3112 8.02303C14.4624 7.36112 13.8189 6.7723 12.5329 5.59465L12.2003 5.28974C11.8349 4.95543 11.6526 4.78743 11.5577 4.564C11.4628 4.34057 11.467 4.08689 11.4737 3.57787L11.4821 3.11504C11.509 1.32589 11.5224 0.43047 10.9529 0.104559C10.3834 -0.221352 9.60897 0.238116 8.05753 1.15621Z" fill="#F86784"/>
</svg>
