<svg width="35" height="36" viewBox="0 0 35 36" fill="none" xmlns="http://www.w3.org/2000/svg">
<rect y="0.5" width="35" height="35" rx="6" fill="#282828"/>
<path d="M16.58 17.098H20.108C20.624 17.098 21.05 17.272 21.386 17.62C21.734 17.956 21.908 18.376 21.908 18.88V23.2C21.908 23.692 21.728 24.118 21.368 24.478C21.02 24.826 20.6 25 20.108 25H16.004C15.632 25 15.272 24.922 14.924 24.766L13.826 24.28C13.286 24.04 13.016 23.728 13.016 23.344C13.016 23.104 13.1 22.894 13.268 22.714C13.436 22.534 13.634 22.444 13.862 22.444C14.018 22.444 14.246 22.51 14.546 22.642L15.518 23.074C15.674 23.146 15.788 23.182 15.86 23.182H16.058L16.22 23.2H20.108V18.88H14.798V10.96H20.702C21.038 10.96 21.29 11.002 21.458 11.086C21.758 11.242 21.908 11.5 21.908 11.86C21.908 12.232 21.758 12.49 21.458 12.634C21.278 12.718 21.026 12.76 20.702 12.76H16.58V17.098Z" fill="#CCCCCC"/>
</svg>
