<svg width="35" height="36" viewBox="0 0 35 36" fill="none" xmlns="http://www.w3.org/2000/svg">
<rect y="0.5" width="35" height="35" rx="6" fill="#282828"/>
<path d="M15.734 18.61H19.28V13.714C19.28 13.378 19.322 13.126 19.406 12.958C19.562 12.658 19.82 12.508 20.18 12.508C20.552 12.508 20.81 12.658 20.954 12.958C21.038 13.138 21.08 13.39 21.08 13.714V18.61C21.68 18.682 21.98 18.97 21.98 19.474C21.98 19.738 21.89 19.96 21.71 20.14C21.542 20.308 21.332 20.392 21.08 20.392V23.794C21.08 24.142 21.038 24.394 20.954 24.55C20.798 24.85 20.54 25 20.18 25C19.808 25 19.55 24.85 19.406 24.55C19.322 24.37 19.28 24.118 19.28 23.794V20.392H13.934V12.166C13.934 11.83 13.976 11.578 14.06 11.41C14.216 11.11 14.474 10.96 14.834 10.96C15.194 10.96 15.452 11.11 15.608 11.41C15.692 11.566 15.734 11.818 15.734 12.166V18.61Z" fill="#CCCCCC"/>
</svg>
