<svg width="16" height="17" viewBox="0 0 16 17" fill="none" xmlns="http://www.w3.org/2000/svg">
<path d="M6.66754 4.97503C7.54765 3.39703 7.9873 2.60763 8.64513 2.60763C9.30297 2.60763 9.74262 3.39703 10.6227 4.97503L10.8499 5.38362C11.1 5.83226 11.2258 6.05617 11.4203 6.20408C11.6148 6.35199 11.8575 6.40674 12.3437 6.51706L12.785 6.61676C14.4937 7.00329 15.3485 7.19696 15.5512 7.85071C15.7547 8.50446 15.172 9.18518 14.0067 10.5474L13.706 10.8988C13.375 11.2862 13.2099 11.4798 13.1348 11.7193C13.0612 11.9587 13.0857 12.2169 13.1356 12.7326L13.1813 13.2033C13.3579 15.0207 13.4453 15.9294 12.9133 16.3331C12.3813 16.7376 11.5813 16.3691 9.98205 15.6328L9.56774 15.4416C9.11338 15.2324 8.8862 15.1278 8.64513 15.1278C8.40406 15.1278 8.17688 15.2324 7.72171 15.4416L7.30821 15.6328C5.70898 16.3683 4.90895 16.7376 4.37696 16.3331C3.84497 15.9294 3.93323 15.0207 4.10892 13.2033L4.15468 12.7334C4.20453 12.2169 4.22987 11.9587 4.15468 11.7201C4.08114 11.4798 3.91525 11.287 3.58429 10.8996L3.28274 10.5466C2.11825 9.18518 1.5356 8.50364 1.73826 7.84989C1.94256 7.19614 2.79652 7.00329 4.50526 6.61676L4.94654 6.51706C5.43277 6.40674 5.67547 6.35199 5.86996 6.20408C6.06527 6.05698 6.1903 5.83226 6.44036 5.38362L6.66754 4.97503ZM2.40835 0.56466C2.43287 0.478856 2.58568 0.478038 2.61102 0.56466C2.72542 0.958545 2.93789 1.54038 3.25905 1.8599C3.5802 2.17861 4.16449 2.38699 4.55837 2.49895C4.64581 2.52346 4.64581 2.67709 4.56001 2.70243C4.16612 2.81683 3.58347 3.0293 3.26395 3.35046C2.94525 3.67161 2.73686 4.2559 2.62491 4.64979C2.60039 4.73641 2.44676 4.73722 2.42143 4.6506C2.30702 4.25672 2.09455 3.67488 1.7734 3.35536C1.45224 3.03665 0.86877 2.82827 0.474068 2.71632C0.387446 2.6918 0.386629 2.53817 0.473251 2.51284C0.867135 2.39843 1.44897 2.18596 1.76849 1.86481C2.0872 1.54365 2.2964 0.958545 2.40835 0.56466Z" fill="#E5F867"/>
<path fill-rule="evenodd" clip-rule="evenodd" d="M13.9564 1.17752C14.119 1.17752 14.2749 1.24209 14.3898 1.35703C14.5048 1.47197 14.5693 1.62786 14.5693 1.79041V1.99471H14.7736C14.9362 1.99471 15.0921 2.05928 15.207 2.17422C15.322 2.28916 15.3865 2.44505 15.3865 2.6076C15.3865 2.77015 15.322 2.92604 15.207 3.04098C15.0921 3.15592 14.9362 3.22049 14.7736 3.22049H14.5693V3.42479C14.5693 3.58734 14.5048 3.74323 14.3898 3.85817C14.2749 3.97311 14.119 4.03768 13.9564 4.03768C13.7939 4.03768 13.638 3.97311 13.5231 3.85817C13.4081 3.74323 13.3436 3.58734 13.3436 3.42479V3.22049H13.1393C12.9767 3.22049 12.8208 3.15592 12.7059 3.04098C12.5909 2.92604 12.5264 2.77015 12.5264 2.6076C12.5264 2.44505 12.5909 2.28916 12.7059 2.17422C12.8208 2.05928 12.9767 1.99471 13.1393 1.99471H13.3436V1.79041C13.3436 1.62786 13.4081 1.47197 13.5231 1.35703C13.638 1.24209 13.7939 1.17752 13.9564 1.17752Z" fill="#E5F867"/>
</svg>
