<svg width="35" height="36" viewBox="0 0 35 36" fill="none" xmlns="http://www.w3.org/2000/svg">
<rect y="0.5" width="35" height="35" rx="6" fill="#282828"/>
<path d="M18.3113 24.9778H20.3133V21.1962C20.3133 20.293 20.6504 19.8413 21.3244 19.8413C21.7154 19.8413 21.9985 20.0099 22.1738 20.3469C22.2681 20.5356 22.3153 20.812 22.3153 21.176V25.908C22.3153 26.2181 22.2277 26.481 22.0524 26.6967C21.8772 26.8989 21.6547 27 21.3851 27H13.64C13.2625 27 12.9794 26.9528 12.7907 26.8584C12.4536 26.6967 12.2851 26.4068 12.2851 25.9889C12.2851 25.571 12.4536 25.2811 12.7907 25.1193C12.9794 25.025 13.2625 24.9778 13.64 24.9778H16.2891V13.2489H13.64C13.2625 13.2489 12.9794 13.2017 12.7907 13.1073C12.4536 12.9456 12.2851 12.6557 12.2851 12.2378C12.2851 11.8199 12.4536 11.53 12.7907 11.3682C12.9794 11.2739 13.2625 11.2267 13.64 11.2267H18.3113V24.9778Z" fill="#CCCCCC"/>
</svg>
