<svg width="35" height="36" viewBox="0 0 35 36" fill="none" xmlns="http://www.w3.org/2000/svg">
<rect y="0.5" width="35" height="35" rx="6" fill="#282828"/>
<path d="M15.0664 19.5282V24.0909H21.3282C21.6718 24.0909 21.9391 24.1355 22.13 24.2245C22.4482 24.3773 22.6073 24.6509 22.6073 25.0455C22.6073 25.44 22.4482 25.7136 22.13 25.8664C21.9391 25.9555 21.6718 26 21.3282 26H13.1382V19.5282C13.1382 18.9682 13.3227 18.51 13.6918 18.1536C14.0609 17.7845 14.5191 17.6 15.0664 17.6H20.6791V13.0182H14.4173C14.0609 13.0182 13.7936 12.9736 13.6155 12.8845C13.2973 12.7318 13.1382 12.4582 13.1382 12.0636C13.1382 11.6691 13.2973 11.3955 13.6155 11.2427C13.7936 11.1536 14.0609 11.1091 14.4173 11.1091H20.6791C21.2391 11.1091 21.6973 11.3 22.0536 11.6818C22.4227 12.0509 22.6073 12.5282 22.6073 13.1136V17.6C22.6073 18.1473 22.4227 18.6055 22.0536 18.9745C21.6973 19.3436 21.2391 19.5282 20.6791 19.5282H15.0664Z" fill="#CCCCCC"/>
</svg>
