<svg width="35" height="36" viewBox="0 0 35 36" fill="none" xmlns="http://www.w3.org/2000/svg">
<rect y="0.5" width="35" height="35" rx="6" fill="#282828"/>
<path d="M19.9982 12.8836H14.1716C13.8509 12.8836 13.6074 12.8421 13.4411 12.7589C13.1441 12.6164 12.9956 12.361 12.9956 11.9927C12.9956 11.5176 13.2273 11.2325 13.6905 11.1375C13.7856 11.1137 13.9459 11.1018 14.1716 11.1018H20.0338C20.509 11.1018 20.9188 11.2562 21.2633 11.5651C21.6078 11.8739 21.78 12.2362 21.78 12.652V16.5185C21.78 17.1125 21.5602 17.6233 21.1207 18.0509C21.584 18.5736 21.8156 19.1794 21.8156 19.8684V23.2182C21.8156 23.729 21.6434 24.1566 21.2989 24.5011C20.9663 24.8337 20.5446 25 20.0338 25H14.1716C13.8509 25 13.6074 24.9584 13.4411 24.8753C13.1441 24.7327 12.9956 24.4773 12.9956 24.1091C12.9956 23.6339 13.2273 23.3488 13.6905 23.2538C13.7856 23.2301 13.9459 23.2182 14.1716 23.2182H20.0338V20.0109C20.0338 19.2982 19.719 18.9418 19.0895 18.9418H15.9535C15.609 18.9418 15.3595 18.9002 15.2051 18.8171C14.9081 18.6627 14.7596 18.4073 14.7596 18.0509C14.7596 17.6945 14.9081 17.4451 15.2051 17.3025C15.3714 17.2194 15.6208 17.1778 15.9535 17.1778H19.1073C19.7012 17.1778 19.9982 16.8096 19.9982 16.0731V12.8836Z" fill="#CCCCCC"/>
</svg>
